<?xml version="1.0" encoding="UTF-8"?>
<svg viewBox="0 0 100 91" xmlns="http://www.w3.org/2000/svg">
 <path d="m46 46h8v16h-8z" fill-rule="evenodd"/>
 <path d="m46 63h3v26h-3z" fill-rule="evenodd"/>
 <path d="m51 63h3v26h-3z" fill-rule="evenodd"/>
 <path transform="matrix(.80808 0 0 .75472 -4.2626 31.208)" d="m72.1 19.6a4.95 5.3 0 1 1 -9.9 0 4.95 5.3 0 1 1 9.9 0z" fill-rule="evenodd"/>
 <path transform="matrix(.80808 0 0 .75472 -4.2626 22.208)" d="m72.1 19.6a4.95 5.3 0 1 1 -9.9 0 4.95 5.3 0 1 1 9.9 0z" fill-rule="evenodd"/>
 <g transform="translate(0 -11)" fill-rule="evenodd">
  <path d="m2 54h21v1h-21z"/>
  <path d="m24 53h20v3h-20z"/>
  <path d="m24 54h21v1h-21z"/>
  <path d="m2 55.008v15.992l12-16-12 0.00751z" fill="#f00"/>
  <path d="m14 70.992v-15.992l-12 16 12-0.00751z" fill="#ff0"/>
 </g>
 <g transform="matrix(.70711 -.70717 .70711 .70717 -15.728 36.205)" fill-rule="evenodd">
  <path d="m2 54h21v1h-21z"/>
  <path d="m24 53h20v3h-20z"/>
  <path d="m24 54h21v1h-21z"/>
  <path d="m2 55.008v15.992l12-16-12 0.00751z" fill="#f00"/>
  <path d="m14 70.992v-15.992l-12 16 12-0.00751z" fill="#ff0"/>
 </g>
</svg>
