<?xml version="1.0" encoding="UTF-8"?>
<svg viewBox="0 0 100 91" xmlns="http://www.w3.org/2000/svg">
 <defs>
  <marker id="a" orient="auto">
   <path transform="matrix(-.3,0,0,-.3,1.5,0)" d="m8.7186 4.0337-10.926-4.0177 10.926-4.0177c-1.7455 2.3721-1.7354 5.6174 0 8.0354z" fill-rule="evenodd"/>
  </marker>
  <marker id="b" orient="auto">
   <path transform="scale(.2)" d="m0 0 5-5-17.5 5 17.5 5-5-5z" fill-rule="evenodd" stroke="#000" stroke-width="1pt"/>
  </marker>
 </defs>
 <g transform="matrix(.70705 -.70717 .70705 .70717 -25.595 36.205)" fill-rule="evenodd">
  <path d="m2 54h21v1h-21z"/>
  <path d="m24 53h20v3h-20z"/>
  <path d="m24 54h21v1h-21z"/>
  <path d="m2 55.008v15.992l12-16-12 0.00751z" fill="#f00"/>
  <path d="m14 70.992v-15.992l-12 16 12-0.00751z" fill="#ff0"/>
 </g>
 <g transform="matrix(-.70717 .70705 .70717 .70705 48.636 -25.704)" fill-rule="evenodd">
  <path d="m2 54h21v1h-21z"/>
  <path d="m24 53h20v3h-20z"/>
  <path d="m24 54h21v1h-21z"/>
  <path d="m2 55.008v15.992l12-16-12 0.00751z" fill="#f00"/>
  <path d="m14 70.992v-15.992l-12 16 12-0.00751z" fill="#ff0"/>
 </g>
 <g transform="matrix(-.70705 -.70711 -.70705 .70711 125.7 36.21)" fill-rule="evenodd">
  <path d="m2 54h21v1h-21z"/>
  <path d="m24 53h20v3h-20z"/>
  <path d="m24 54h21v1h-21z"/>
  <path d="m2 55.008v15.992l12-16-12 0.00751z" fill="#f00"/>
  <path d="m14 70.992v-15.992l-12 16 12-0.00751z" fill="#ff0"/>
 </g>
 <path d="m46 46h8v16h-8z" fill-rule="evenodd"/>
 <path d="m46 63h3v26h-3z" fill-rule="evenodd"/>
 <path d="m51 63h3v26h-3z" fill-rule="evenodd"/>
 <path transform="matrix(.80808 0 0 .75472 -4.2626 31.208)" d="m72.1 19.6a4.95 5.3 0 1 1 -9.9 0 4.95 5.3 0 1 1 9.9 0z" fill-rule="evenodd"/>
 <path transform="matrix(.80808 0 0 .75472 -4.2626 22.208)" d="m72.1 19.6a4.95 5.3 0 1 1 -9.9 0 4.95 5.3 0 1 1 9.9 0z" fill-rule="evenodd"/>
 <g transform="matrix(.70717 .70711 -.70717 .70711 51.395 -25.711)" fill-rule="evenodd">
  <path d="m2 54h21v1h-21z"/>
  <path d="m24 53h20v3h-20z"/>
  <path d="m24 54h21v1h-21z"/>
  <path d="m2 55.008v15.992l12-16-12 0.00751z" fill="#f00"/>
  <path d="m14 70.992v-15.992l-12 16 12-0.00751z" fill="#ff0"/>
 </g>
 <path d="m11.853 39.071 0.34666 2.8289 0.3 2.6 0.5 2.9 0.7 3.1 0.8 2.8 1.1 2.9 1.3 2.9 1.8 3.2" fill="none" marker-end="url(#a)" marker-start="url(#b)" stroke="#000" stroke-dasharray="1.0000000,1.0000000"/>
 <path d="m88.447 39.071-0.34666 2.8289-0.3 2.6-0.5 2.9-0.7 3.1-0.8 2.8-1.1 2.9-1.3 2.9-1.8 3.2" fill="none" marker-end="url(#a)" marker-start="url(#b)" stroke="#000" stroke-dasharray="1.0000000 1.0000000"/>
</svg>
